<svg width="79" height="79" viewBox="0 0 79 79" fill="none" xmlns="http://www.w3.org/2000/svg">
<path d="M7.72467 2.00427L3 6.79084L13.3943 21.5383C13.8319 22.1593 14.4096 22.6653 15.0795 23.0142C15.7493 23.3631 16.4917 23.5447 17.2449 23.5438H17.5756C18.1968 23.5433 18.812 23.667 19.386 23.9076C19.96 24.1483 20.4815 24.5012 20.9207 24.9463L33.5592 37.7504L21.1947 50.4539C19.0799 49.8232 16.8491 49.7005 14.6794 50.0954C12.5096 50.4903 10.4605 51.3921 8.69464 52.729C6.92877 54.066 5.49472 55.8015 4.50624 57.7978C3.51776 59.7941 3.00204 61.9963 3 64.2297C3.00283 66.2876 3.44225 68.3209 4.28847 70.1917C5.1347 72.0626 6.36796 73.7273 7.90471 75.0731C9.44145 76.419 11.2458 77.4144 13.1954 77.9921C15.1451 78.5697 17.1945 78.7161 19.2049 78.4212C21.2153 78.1263 23.1396 77.3971 24.8475 76.283C26.5554 75.1689 28.0069 73.6959 29.1038 71.9638C30.2007 70.2317 30.9173 68.281 31.2051 66.2438C31.4928 64.2066 31.345 62.1306 30.7716 60.1563L43.3109 47.6298L47.8843 52.2632L46.4433 56.6382C46.1664 57.4814 46.1267 58.3862 46.3287 59.251C46.5306 60.1158 46.9662 60.9066 47.5867 61.5348L63.4427 77.5986C64.3287 78.4959 65.5302 79 66.783 79C68.0358 79 69.2374 78.4959 70.1234 77.5986L77.6167 70.0071C78.5024 69.1094 79 67.8922 79 66.623C79 65.3537 78.5024 64.1365 77.6167 63.2389L61.7607 47.1751C61.1406 46.5465 60.36 46.1052 59.5064 45.9006C58.6527 45.696 57.7597 45.7362 56.9274 46.0168L52.609 47.4767L48.0733 42.8816L60.7354 30.2307C62.836 30.7987 65.0372 30.8705 67.1694 30.4404C69.3017 30.0103 71.3079 29.0899 73.0335 27.75C74.7591 26.4102 76.1579 24.6868 77.1221 22.7127C78.0863 20.7386 78.5901 18.5665 78.5947 16.364C78.5947 15.0764 78.4293 13.8271 78.1128 12.6448L68.002 22.8929L59.696 21.1506L57.9762 12.7405L68.0918 2.4925C65.6854 1.83704 63.1511 1.83581 60.7442 2.48896C58.3373 3.1421 56.1428 4.42653 54.3821 6.21277C52.6214 7.99901 51.3565 10.2239 50.7151 12.6633C50.0737 15.1026 50.0783 17.6701 50.7286 20.1071L38.2555 32.9255L25.6453 20.1597C24.7592 19.2623 24.2613 18.045 24.261 16.7756V16.4358C24.2611 15.6736 24.0815 14.9224 23.7371 14.2447C23.3928 13.567 22.8937 12.9824 22.2814 12.5395L7.72467 2.00427ZM53.2988 52.9621C53.5183 52.7392 53.7789 52.5624 54.0659 52.4417C54.3529 52.3211 54.6606 52.259 54.9713 52.259C55.2821 52.259 55.5898 52.3211 55.8768 52.4417C56.1638 52.5624 56.4244 52.7392 56.6439 52.9621L70.8179 67.3218C71.0375 67.5443 71.2118 67.8085 71.3306 68.0992C71.4495 68.3899 71.5107 68.7016 71.5107 69.0162C71.5107 69.3309 71.4495 69.6425 71.3306 69.9333C71.2118 70.224 71.0375 70.4882 70.8179 70.7107C70.5982 70.9332 70.3375 71.1097 70.0505 71.2301C69.7635 71.3506 69.456 71.4125 69.1454 71.4125C68.8347 71.4125 68.5272 71.3506 68.2402 71.2301C67.9532 71.1097 67.6925 70.9332 67.4728 70.7107L53.2988 56.351C53.0788 56.1287 52.9043 55.8646 52.7852 55.5738C52.6661 55.283 52.6048 54.9713 52.6048 54.6565C52.6048 54.3417 52.6661 54.03 52.7852 53.7393C52.9043 53.4485 53.0788 53.1844 53.2988 52.9621ZM17.174 54.6565L19.3993 55.8149L21.8987 55.9393L23.2547 58.0694L25.3571 59.4431L25.48 61.9752L26.6233 64.2297L25.48 66.4841L25.3571 69.0162L23.2547 70.39L21.8987 72.52L19.3993 72.6445L17.174 73.8028L14.9487 72.6445L12.4493 72.52L11.0934 70.39L8.99088 69.0162L8.86804 66.4841L7.72467 64.2297L8.86804 61.9752L8.99088 59.4431L11.0934 58.0694L12.4493 55.9393L14.9487 55.8149L17.174 54.6565Z" fill="white"/>
</svg>
