<svg width="100" height="100" viewBox="0 0 100 100" fill="none" xmlns="http://www.w3.org/2000/svg">
<g clip-path="url(#clip0_37_680)">
<path d="M40.625 6.25C38.1386 6.25 35.754 7.23772 33.9959 8.99587C32.2377 10.754 31.25 13.1386 31.25 15.625V18.75H9.375C6.8886 18.75 4.50403 19.7377 2.74587 21.4959C0.98772 23.254 0 25.6386 0 28.125L0 36.775L47.5875 49.4625C49.1683 49.8835 50.8317 49.8835 52.4125 49.4625L100 36.775V28.125C100 25.6386 99.0123 23.254 97.2541 21.4959C95.496 19.7377 93.1114 18.75 90.625 18.75H68.75V15.625C68.75 13.1386 67.7623 10.754 66.0041 8.99587C64.246 7.23772 61.8614 6.25 59.375 6.25H40.625ZM40.625 12.5H59.375C60.2038 12.5 60.9987 12.8292 61.5847 13.4153C62.1708 14.0013 62.5 14.7962 62.5 15.625V18.75H37.5V15.625C37.5 14.7962 37.8292 14.0013 38.4153 13.4153C39.0013 12.8292 39.7962 12.5 40.625 12.5Z" fill="white"/>
<path d="M0 78.125C0 80.6114 0.98772 82.996 2.74587 84.7541C4.50403 86.5123 6.8886 87.5 9.375 87.5H90.625C93.1114 87.5 95.496 86.5123 97.2541 84.7541C99.0123 82.996 100 80.6114 100 78.125V42.8125L50.8062 55.9187C50.278 56.0598 49.722 56.0598 49.1937 55.9187L0 42.8125V78.125Z" fill="white"/>
</g>
<defs>
<clipPath id="clip0_37_680">
<rect width="100" height="100" fill="white"/>
</clipPath>
</defs>
</svg>
