<svg width="101" height="78" viewBox="0 0 101 78" fill="none" xmlns="http://www.w3.org/2000/svg">
<path d="M94.75 76C94.75 76 101 76 101 69.75C101 63.5 94.75 44.75 69.75 44.75C44.75 44.75 38.5 63.5 38.5 69.75C38.5 76 44.75 76 44.75 76H94.75ZM44.8875 69.75C44.8413 69.7436 44.7955 69.7353 44.75 69.725C44.7562 68.075 45.7938 63.2875 49.5 58.975C52.95 54.9312 59.0125 51 69.75 51C80.4812 51 86.5437 54.9375 90 58.975C93.7063 63.2875 94.7375 68.0812 94.75 69.725L94.7 69.7375C94.6709 69.7424 94.6418 69.7466 94.6125 69.75H44.8875ZM69.75 32.25C73.0652 32.25 76.2446 30.933 78.5888 28.5888C80.933 26.2446 82.25 23.0652 82.25 19.75C82.25 16.4348 80.933 13.2554 78.5888 10.9112C76.2446 8.56696 73.0652 7.25 69.75 7.25C66.4348 7.25 63.2554 8.56696 60.9112 10.9112C58.567 13.2554 57.25 16.4348 57.25 19.75C57.25 23.0652 58.567 26.2446 60.9112 28.5888C63.2554 30.933 66.4348 32.25 69.75 32.25ZM88.5 19.75C88.5 22.2123 88.015 24.6505 87.0727 26.9253C86.1305 29.2002 84.7494 31.2672 83.0083 33.0083C81.2672 34.7494 79.2002 36.1305 76.9253 37.0727C74.6505 38.015 72.2123 38.5 69.75 38.5C67.2877 38.5 64.8495 38.015 62.5747 37.0727C60.2998 36.1305 58.2328 34.7494 56.4917 33.0083C54.7506 31.2672 53.3695 29.2002 52.4273 26.9253C51.485 24.6505 51 22.2123 51 19.75C51 14.7772 52.9754 10.0081 56.4917 6.49175C60.0081 2.97544 64.7772 1 69.75 1C74.7228 1 79.492 2.97544 83.0083 6.49175C86.5246 10.0081 88.5 14.7772 88.5 19.75ZM44.35 46.5C41.8499 45.7127 39.2727 45.1952 36.6625 44.9562C35.1958 44.8168 33.7233 44.748 32.25 44.75C7.25 44.75 1 63.5 1 69.75C1 73.9187 3.08125 76 7.25 76H33.6C32.6735 74.0488 32.2114 71.9096 32.25 69.75C32.25 63.4375 34.6063 56.9875 39.0625 51.6C40.5812 49.7625 42.35 48.0438 44.35 46.5ZM31.75 51C28.051 56.5579 26.0527 63.0739 26 69.75H7.25C7.25 68.125 8.275 63.3125 12 58.975C15.4062 55 21.325 51.125 31.75 51.0063V51ZM10.375 22.875C10.375 17.9022 12.3504 13.1331 15.8667 9.61675C19.3831 6.10044 24.1522 4.125 29.125 4.125C34.0978 4.125 38.8669 6.10044 42.3833 9.61675C45.8996 13.1331 47.875 17.9022 47.875 22.875C47.875 27.8478 45.8996 32.6169 42.3833 36.1333C38.8669 39.6496 34.0978 41.625 29.125 41.625C24.1522 41.625 19.3831 39.6496 15.8667 36.1333C12.3504 32.6169 10.375 27.8478 10.375 22.875ZM29.125 10.375C25.8098 10.375 22.6304 11.692 20.2862 14.0362C17.942 16.3804 16.625 19.5598 16.625 22.875C16.625 26.1902 17.942 29.3696 20.2862 31.7138C22.6304 34.058 25.8098 35.375 29.125 35.375C32.4402 35.375 35.6196 34.058 37.9638 31.7138C40.308 29.3696 41.625 26.1902 41.625 22.875C41.625 19.5598 40.308 16.3804 37.9638 14.0362C35.6196 11.692 32.4402 10.375 29.125 10.375Z" fill="white"/>
</svg>
