<svg width="108" height="90" viewBox="0 0 108 90" fill="none" xmlns="http://www.w3.org/2000/svg">
<g filter="url(#filter0_d_37_684)">
<path d="M55.4711 0.366668C55.019 0.125917 54.5146 0 54.0023 0C53.4901 0 52.9857 0.125917 52.5336 0.366668L5.6586 25.3667C5.15939 25.6334 4.742 26.0307 4.45098 26.5161C4.15996 27.0016 4.00625 27.5569 4.00625 28.1229C4.00625 28.6889 4.15996 29.2443 4.45098 29.7297C4.742 30.2152 5.15939 30.6124 5.6586 30.8792L23.9273 40.6229L5.65235 50.3667C5.15314 50.6334 4.73575 51.0307 4.44473 51.5161C4.15371 52.0016 4 52.5569 4 53.1229C4 53.6889 4.15371 54.2443 4.44473 54.7297C4.73575 55.2152 5.15314 55.6124 5.65235 55.8792L52.5273 80.8792C52.9795 81.1199 53.4839 81.2458 53.9961 81.2458C54.5083 81.2458 55.0127 81.1199 55.4649 80.8792L102.34 55.8792C102.839 55.6124 103.256 55.2152 103.547 54.7297C103.838 54.2443 103.992 53.6889 103.992 53.1229C103.992 52.5569 103.838 52.0016 103.547 51.5161C103.256 51.0307 102.839 50.6334 102.34 50.3667L84.0836 40.6229L102.346 30.8792C102.845 30.6124 103.263 30.2152 103.554 29.7297C103.845 29.2443 103.998 28.6889 103.998 28.1229C103.998 27.5569 103.845 27.0016 103.554 26.5161C103.263 26.0307 102.845 25.6334 102.346 25.3667L55.4711 0.366668ZM77.4398 44.1667L94.2398 53.1229L54.0023 74.5792L13.7648 53.1229L30.5648 44.1667L52.5336 55.8792C52.9857 56.1199 53.4901 56.2458 54.0023 56.2458C54.5146 56.2458 55.019 56.1199 55.4711 55.8792L77.4398 44.1667ZM54.0023 49.5792L13.7648 28.1229L54.0023 6.66667L94.2398 28.1229L54.0023 49.5792Z" fill="white"/>
<path d="M24.99 40.623L24.1626 41.0641L5.88797 50.8077C5.46864 51.0317 5.11803 51.3654 4.87358 51.7732C4.62912 52.181 4.5 52.6475 4.5 53.1229C4.5 53.5984 4.62912 54.0649 4.87358 54.4726C5.11803 54.8804 5.46864 55.2141 5.88797 55.4382L52.7623 80.4378L24.99 40.623ZM24.99 40.623L24.1626 40.1817M24.99 40.623L24.1626 40.1817M24.1626 40.1817L5.89422 30.4382C5.47489 30.2141 5.12428 29.8804 4.87983 29.4726C4.63537 29.0649 4.50625 28.5983 4.50625 28.1229C4.50625 27.6475 4.63537 27.181 4.87983 26.7732C5.12422 26.3655 5.47471 26.0319 5.89389 25.8078L24.1626 40.1817ZM83.0216 40.6228L83.8482 40.1818L102.11 30.4382L83.0216 40.6228ZM83.0216 40.6228L83.8482 41.064M83.0216 40.6228L83.8482 41.064M83.8482 41.064L102.104 50.8077C102.524 51.0317 102.874 51.3654 103.119 51.7732C103.363 52.181 103.492 52.6475 103.492 53.1229C103.492 53.5984 103.363 54.0649 103.119 54.4726C102.874 54.8804 102.524 55.2141 102.104 55.4382L55.2299 80.4378L83.8482 41.064ZM55.2361 0.808001C54.8563 0.60577 54.4326 0.5 54.0023 0.5C53.5721 0.5 53.1484 0.605771 52.7686 0.808001L5.89422 25.8077L55.2361 0.808001ZM55.2361 0.808001L102.11 25.8077C102.53 26.0317 102.88 26.3654 103.125 26.7732C103.369 27.181 103.498 27.6475 103.498 28.1229C103.498 28.5983 103.369 29.0649 103.125 29.4726C102.88 29.8803 102.53 30.214 102.111 30.438L55.2361 0.808001ZM77.6751 43.7255L77.4398 43.6L77.2046 43.7255L55.2361 55.4378C54.8563 55.6401 54.4326 55.7458 54.0023 55.7458C53.5721 55.7458 53.1484 55.6401 52.7686 55.4378L30.8001 43.7255L30.5649 43.6L30.3296 43.7255L13.5296 52.6817L12.7021 53.1229L13.5296 53.5641L53.7671 75.0204L54.0023 75.1458L54.2376 75.0204L94.4751 53.5641L95.3026 53.1229L94.4751 52.6817L77.6751 43.7255ZM53.7671 50.0204L54.0023 50.1458L54.2376 50.0204L94.4751 28.5641L95.3025 28.1229L94.4751 27.6817L54.2376 6.22547L54.0023 6.10002L53.7671 6.22547L13.5296 27.6817L12.7022 28.1229L13.5296 28.5641L53.7671 50.0204ZM53.9961 80.7458C53.5659 80.7458 53.1424 80.6401 52.7626 80.438H55.2296C54.8498 80.6401 54.4263 80.7458 53.9961 80.7458Z" stroke="white"/>
</g>
<defs>
<filter id="filter0_d_37_684" x="0" y="0" width="107.998" height="89.2461" filterUnits="userSpaceOnUse" color-interpolation-filters="sRGB">
<feFlood flood-opacity="0" result="BackgroundImageFix"/>
<feColorMatrix in="SourceAlpha" type="matrix" values="0 0 0 0 0 0 0 0 0 0 0 0 0 0 0 0 0 0 127 0" result="hardAlpha"/>
<feOffset dy="4"/>
<feGaussianBlur stdDeviation="2"/>
<feComposite in2="hardAlpha" operator="out"/>
<feColorMatrix type="matrix" values="0 0 0 0 0 0 0 0 0 0 0 0 0 0 0 0 0 0 0.25 0"/>
<feBlend mode="normal" in2="BackgroundImageFix" result="effect1_dropShadow_37_684"/>
<feBlend mode="normal" in="SourceGraphic" in2="effect1_dropShadow_37_684" result="shape"/>
</filter>
</defs>
</svg>
