<svg width="134" height="94" viewBox="0 0 134 94" fill="none" xmlns="http://www.w3.org/2000/svg">
<path d="M134 47C134 47 108.875 14.6875 67 14.6875C25.125 14.6875 0 47 0 47C0 47 25.125 79.3125 67 79.3125C108.875 79.3125 134 47 134 47ZM9.82387 47C13.8733 42.6826 18.5309 38.6615 23.7264 34.9974C34.505 27.4245 49.245 20.5625 67 20.5625C84.755 20.5625 99.4866 27.4245 110.282 34.9974C115.478 38.6615 120.135 42.6826 124.185 47C123.699 47.5111 123.163 48.0751 122.551 48.692C119.746 51.512 115.6 55.272 110.282 59.0026C99.4866 66.5755 84.7466 73.4375 67 73.4375C49.245 73.4375 34.5134 66.5755 23.718 59.0026C18.5225 55.3384 13.8734 51.3174 9.82387 47Z" fill="white"/>
<path d="M67 32.3125C61.447 32.3125 56.1215 33.8599 52.195 36.6144C48.2684 39.3688 46.0625 43.1046 46.0625 47C46.0625 50.8954 48.2684 54.6312 52.195 57.3856C56.1215 60.1401 61.447 61.6875 67 61.6875C72.553 61.6875 77.8785 60.1401 81.805 57.3856C85.7316 54.6312 87.9375 50.8954 87.9375 47C87.9375 43.1046 85.7316 39.3688 81.805 36.6144C77.8785 33.8599 72.553 32.3125 67 32.3125ZM37.6875 47C37.6875 41.5465 40.7758 36.3163 46.2729 32.4601C51.7701 28.6039 59.2258 26.4375 67 26.4375C74.7742 26.4375 82.2299 28.6039 87.7271 32.4601C93.2242 36.3163 96.3125 41.5465 96.3125 47C96.3125 52.4535 93.2242 57.6837 87.7271 61.5399C82.2299 65.3961 74.7742 67.5625 67 67.5625C59.2258 67.5625 51.7701 65.3961 46.2729 61.5399C40.7758 57.6837 37.6875 52.4535 37.6875 47Z" fill="white"/>
</svg>
