<svg width="20" height="20" viewBox="0 0 20 20" fill="none" xmlns="http://www.w3.org/2000/svg">
<g clip-path="url(#clip0_324_429)">
<path d="M19.805 10.2302C19.805 9.55044 19.7499 8.86699 19.6323 8.19824H10.2V12.0491H15.6015C15.3773 13.291 14.6571 14.3897 13.6026 15.0878V17.5864H16.825C18.7174 15.8448 19.805 13.2726 19.805 10.2302Z" fill="#4285F4"/>
<path d="M10.2 20.0008C12.897 20.0008 15.1715 19.1152 16.8287 17.5867L13.6062 15.088C12.7096 15.698 11.5522 16.0434 10.2037 16.0434C7.59482 16.0434 5.3828 14.2833 4.58912 11.917H1.26375V14.4928C2.96134 17.8696 6.419 20.0008 10.2 20.0008V20.0008Z" fill="#34A853"/>
<path d="M4.58546 11.9173C4.16657 10.6753 4.16657 9.33044 4.58546 8.08848V5.5127H1.26376C-0.154572 8.33834 -0.154572 11.6674 1.26376 14.493L4.58546 11.9173V11.9173Z" fill="#FBBC04"/>
<path d="M10.2 3.95805C11.6257 3.936 13.0036 4.47247 14.0361 5.45722L16.8912 2.60218C15.0833 0.904587 12.6839 -0.0287217 10.2 0.000673888C6.41899 0.000673888 2.96134 2.13185 1.26375 5.51234L4.58545 8.08813C5.37545 5.71811 7.59114 3.95805 10.2 3.95805V3.95805Z" fill="#EA4335"/>
</g>
<defs>
<clipPath id="clip0_324_429">
<rect width="20" height="20" fill="white"/>
</clipPath>
</defs>
</svg>
