<svg width="53" height="47" viewBox="0 0 53 47" fill="none" xmlns="http://www.w3.org/2000/svg">
<g clip-path="url(#clip0_285_1052)">
<ellipse cx="26.5" cy="23.5" rx="26.5" ry="23.5" fill="black"/>
<path d="M12.0625 32.5C11.1302 32.5 10.5 31.8584 10.5 31.2188V30.4469H10V27.3594H10.5V22.7281H10V16.5531H10.5V15.7812C10.5 15.1416 11.1302 14.5 12.0625 14.5H13.5062V14H19.2812V14.5H27.9438V14H39.4938V14.5H40.9375C41.8698 14.5 42.5 15.1416 42.5 15.7812V16.5531H43V19.6406H42.5V24.2719H43V30.4469H42.5V31.2188C42.5 31.8584 41.8698 32.5 40.9375 32.5H39.4937V33H33.7188V32.5H25.0562V33H13.5062V32.5H12.0625ZM12.0625 14.6875C11.4782 14.6875 10.875 15.1111 10.875 15.7812V16.5531H11.375V19.6406H10.875V24.2719H11.375V30.4469H10.875V31.2188C10.875 31.8889 11.4782 32.3125 12.0625 32.3125H13.5062V31.8125H19.2812V32.3125H27.9438V31.8125H39.4938V32.3125H40.9375C41.5218 32.3125 42.125 31.8889 42.125 31.2188V30.4469H41.625V27.3594H42.125V22.7281H41.625V16.5531H42.125V15.7812C42.125 15.1111 41.5218 14.6875 40.9375 14.6875H39.4937V15.1875H33.7188V14.6875H25.0562V15.1875H13.5062V14.6875H12.0625Z" fill="white" stroke="white" stroke-dasharray="10 20 30 40"/>
<path d="M24.7428 23.696L24.7417 23.6953L24.0495 23.2631L23.7847 23.6872L21.016 21.9582L21.2808 21.5341L17.1278 18.9406L16.8629 19.3647L11.3255 15.9067L11.5904 15.4826L10.8991 15.0509C10.899 15.0508 10.8989 15.0507 10.8988 15.0507C10.8949 15.0482 10.8913 15.0458 10.888 15.0434L10.5934 15.4474C10.5391 15.4078 10.4935 15.3621 10.457 15.3124L10.86 15.0164C10.8516 15.005 10.85 14.9971 10.8497 14.9941L10.3525 15.0467C10.3394 14.9229 10.3707 14.795 10.45 14.6826L10.8586 14.9708C10.86 14.9688 10.8617 14.9666 10.8637 14.9642C10.8658 14.9617 10.868 14.9592 10.8705 14.9567L10.5147 14.6054C10.5641 14.5554 10.6215 14.5141 10.684 14.4819L10.9128 14.9265C10.9408 14.9121 10.9769 14.9015 11.0175 14.899L10.9866 14.4C11.1252 14.3914 11.2676 14.4188 11.3935 14.4851L11.1605 14.9275C11.1652 14.93 11.1698 14.9327 11.1742 14.9354L11.1743 14.9354L11.8665 15.3677L12.1314 14.9437L14.9003 16.6729L14.6355 17.097L18.7889 19.6908L19.0538 19.2667L24.5917 22.7252L24.3269 23.1493L25.0179 23.5809C25.0182 23.581 25.0184 23.5812 25.0187 23.5813C25.9088 24.1404 27.0896 24.1386 27.9774 23.5826C27.9775 23.5826 27.9776 23.5825 27.9777 23.5824L28.6696 23.1505L28.4048 22.7264L31.1748 20.9969L31.4396 21.421L35.5947 18.8268L35.3299 18.4027L40.8701 14.9437L41.1349 15.3678L41.8274 14.9355L41.8292 14.9343C41.8334 14.9317 41.8378 14.9292 41.8423 14.9268L41.6081 14.485C41.6706 14.4519 41.7372 14.4285 41.8056 14.4145L41.9063 14.9042C41.9434 14.8966 41.9835 14.8965 42.0218 14.9041L42.1192 14.4137C42.2584 14.4413 42.3884 14.5062 42.4869 14.6055L42.132 14.9577C42.1346 14.9603 42.1369 14.9628 42.139 14.9654C42.141 14.9677 42.1427 14.9699 42.1441 14.9719L42.5518 14.6825C42.5907 14.7372 42.618 14.7956 42.6344 14.8554L42.1521 14.9872C42.1526 14.9892 42.1527 14.9906 42.1527 14.9919C42.1527 14.9932 42.1525 14.9952 42.1517 14.9979L42.6309 15.1405C42.5963 15.2568 42.521 15.3646 42.4084 15.4463L42.1148 15.0416C42.1115 15.044 42.1078 15.0464 42.1038 15.0489L42.1036 15.0491L41.4111 15.4814L41.6759 15.9055L38.9061 17.6348L38.6413 17.2106L34.4866 19.8045L34.7514 20.2286L29.2118 23.6871L28.947 23.263L28.2546 23.6953L28.253 23.6963C27.7345 24.0227 27.1198 24.1894 26.4995 24.1894C25.8778 24.1894 25.2629 24.0227 24.7428 23.696Z" fill="white" stroke="white" stroke-dasharray="10 20 30 40"/>
<path d="M10.4715 32.3381C10.4326 32.2834 10.4051 32.225 10.3887 32.1652L10.8708 32.0326C10.8702 32.0306 10.8701 32.0292 10.8701 32.0279C10.8701 32.0266 10.8703 32.0246 10.8711 32.0219L10.3917 31.8799C10.4261 31.7637 10.5012 31.6557 10.6137 31.5733L10.9092 31.9767C10.9125 31.9743 10.9161 31.9718 10.9201 31.9693C10.9202 31.9692 10.9203 31.9691 10.9205 31.969L11.5993 31.5435L11.3337 31.1198L14.0543 29.4143L14.3199 29.838L18.4007 27.2798L18.1351 26.8561L23.5763 23.4451L23.8419 23.8688L24.5216 23.4426C24.5217 23.4426 24.5217 23.4426 24.5218 23.4426C24.5263 23.4397 24.5309 23.4371 24.5357 23.4346L24.3021 22.9925C24.3648 22.9593 24.4315 22.9359 24.4997 22.9217L24.6015 23.4112C24.6389 23.4034 24.6788 23.4033 24.7167 23.4108L24.8136 22.9203C24.9528 22.9478 25.0828 23.0128 25.1819 23.1118L24.8284 23.4654C24.8307 23.4678 24.833 23.4702 24.835 23.4726C24.8367 23.4746 24.8382 23.4765 24.8394 23.4783L25.247 23.1888C25.2859 23.2435 25.3134 23.3019 25.3298 23.3616L24.8477 23.4942C24.8483 23.4962 24.8484 23.4977 24.8484 23.4989C24.8484 23.5002 24.8482 23.5022 24.8474 23.505L25.3268 23.6469C25.2924 23.7632 25.2173 23.8711 25.1048 23.9535L24.8093 23.5502C24.806 23.5526 24.8024 23.5551 24.7985 23.5576C24.7983 23.5577 24.7982 23.5577 24.798 23.5578L24.1192 23.9834L24.3848 24.407L21.6642 26.1125L21.3986 25.6889L17.3178 28.2471L17.5834 28.6707L12.1422 32.0817L11.8766 31.6581L11.199 32.0829C11.1588 32.1072 11.1092 32.1209 11.0578 32.1209L11.0459 32.1207L11.0264 32.6203C10.9844 32.6187 10.9427 32.6137 10.9019 32.6056L10.9993 32.1152C10.9766 32.1107 10.9563 32.1038 10.9391 32.0956L10.7235 32.5467C10.6478 32.5105 10.579 32.4614 10.5217 32.3998L10.8878 32.0593L10.8838 32.0547C10.882 32.0524 10.8804 32.0504 10.8791 32.0486L10.4715 32.3381Z" fill="white" stroke="white" stroke-dasharray="10 20 30 40"/>
<path d="M41.8037 32.085L41.8034 32.0848L41.1233 31.6584L40.8577 32.082L38.1374 30.3766L38.403 29.9529L34.3225 27.3947L34.057 27.8183L28.6164 24.4074L28.8819 23.9837L28.2027 23.5579C28.1988 23.5554 28.1952 23.5529 28.1919 23.5505L27.8964 23.9539C27.8422 23.9141 27.7966 23.8684 27.7601 23.8187L28.1632 23.5228C28.1546 23.5111 28.1532 23.5034 28.1529 23.5008L27.6556 23.5529C27.6427 23.4292 27.6743 23.3015 27.7542 23.1891L28.1618 23.4786C28.1632 23.4766 28.165 23.4744 28.167 23.4719C28.1692 23.4693 28.1716 23.4666 28.1742 23.464C28.1743 23.464 28.1743 23.464 28.1743 23.464C28.1743 23.464 28.1743 23.464 28.1743 23.464L27.8191 23.112C27.8687 23.062 27.9262 23.0206 27.9888 22.9885L28.2175 23.4331C28.2456 23.4186 28.2814 23.4082 28.3218 23.4058L28.2918 22.9067C28.4302 22.8984 28.5725 22.9262 28.6991 22.9929L28.466 23.4352C28.4708 23.4378 28.4754 23.4404 28.48 23.4432L29.1593 23.8691L29.4249 23.4455L32.1452 25.151L31.8796 25.5746L35.96 28.1328L36.2256 27.7092L41.6662 31.1202L41.4006 31.5438L42.0794 31.9693C42.0795 31.9694 42.0797 31.9696 42.0799 31.9697C42.0838 31.9721 42.0874 31.9746 42.0907 31.977L42.3862 31.5737C42.4404 31.6134 42.486 31.6591 42.5224 31.7088L42.1194 32.0047C42.128 32.0164 42.1294 32.0242 42.1296 32.0267L42.6269 31.9747C42.6399 32.0984 42.6082 32.226 42.5284 32.3384L42.1207 32.0489C42.1194 32.0508 42.1179 32.0528 42.1161 32.055L42.1121 32.0594L42.4781 32.4002C42.4494 32.431 42.4178 32.4587 42.3838 32.4832L42.0911 32.0778C42.0783 32.087 42.0621 32.096 42.0422 32.1035L42.2178 32.5716C42.1399 32.6008 42.0565 32.6173 41.9721 32.6206L41.9526 32.121L41.9407 32.1212C41.8858 32.1212 41.838 32.1065 41.8037 32.085Z" fill="white" stroke="white" stroke-dasharray="10 20 30 40"/>
</g>
<defs>
<clipPath id="clip0_285_1052">
<rect width="53" height="47" fill="white"/>
</clipPath>
</defs>
</svg>
