<svg width="83" height="74" viewBox="0 0 83 74" fill="none" xmlns="http://www.w3.org/2000/svg">
<path d="M73 8.57729C74.3261 8.57729 75.5978 9.05954 76.5355 9.91795C77.4732 10.7764 78 11.9406 78 13.1546V49.7729C78 50.9869 77.4732 52.1511 76.5355 53.0095C75.5978 53.8679 74.3261 54.3502 73 54.3502H25.07C22.4181 54.3507 19.8749 55.3155 18 57.0325L8 66.1871V13.1546C8 11.9406 8.52678 10.7764 9.46447 9.91795C10.4021 9.05954 11.6739 8.57729 13 8.57729H73ZM13 4C10.3478 4 7.8043 4.9645 5.92893 6.68131C4.05357 8.39813 3 10.7266 3 13.1546L3 71.7118C3.00011 72.1647 3.14696 72.6073 3.42199 72.9838C3.69701 73.3602 4.08783 73.6534 4.545 73.8264C5.00216 73.9994 5.5051 74.0444 5.99018 73.9556C6.47526 73.8668 6.92065 73.6482 7.27 73.3276L21.535 60.2686C22.4725 59.4101 23.744 58.9277 25.07 58.9275H73C75.6522 58.9275 78.1957 57.963 80.0711 56.2462C81.9464 54.5293 83 52.2008 83 49.7729V13.1546C83 10.7266 81.9464 8.39813 80.0711 6.68131C78.1957 4.9645 75.6522 4 73 4H13Z" fill="white"/>
<path d="M28 31.5C28 32.6935 27.4732 33.8381 26.5355 34.682C25.5979 35.5259 24.3261 36 23 36C21.6739 36 20.4021 35.5259 19.4645 34.682C18.5268 33.8381 18 32.6935 18 31.5C18 30.3065 18.5268 29.1619 19.4645 28.318C20.4021 27.4741 21.6739 27 23 27C24.3261 27 25.5979 27.4741 26.5355 28.318C27.4732 29.1619 28 30.3065 28 31.5ZM48 31.5C48 32.6935 47.4732 33.8381 46.5355 34.682C45.5979 35.5259 44.3261 36 43 36C41.6739 36 40.4021 35.5259 39.4645 34.682C38.5268 33.8381 38 32.6935 38 31.5C38 30.3065 38.5268 29.1619 39.4645 28.318C40.4021 27.4741 41.6739 27 43 27C44.3261 27 45.5979 27.4741 46.5355 28.318C47.4732 29.1619 48 30.3065 48 31.5ZM68 31.5C68 32.6935 67.4732 33.8381 66.5355 34.682C65.5979 35.5259 64.3261 36 63 36C61.6739 36 60.4021 35.5259 59.4645 34.682C58.5268 33.8381 58 32.6935 58 31.5C58 30.3065 58.5268 29.1619 59.4645 28.318C60.4021 27.4741 61.6739 27 63 27C64.3261 27 65.5979 27.4741 66.5355 28.318C67.4732 29.1619 68 30.3065 68 31.5Z" fill="white"/>
<path d="M18.3376 57.4013L18.3377 57.4012C20.1161 55.7726 22.5371 54.8507 25.07 54.8502C25.07 54.8502 25.0701 54.8502 25.0701 54.8502H73C74.4451 54.8502 75.839 54.325 76.8732 53.3783C77.9088 52.4302 78.5 51.1344 78.5 49.7729V13.1546C78.5 11.793 77.9088 10.4972 76.8732 9.54915C75.839 8.60243 74.4451 8.07729 73 8.07729H13C11.5549 8.07729 10.161 8.60243 9.12685 9.54915C8.09122 10.4972 7.5 11.793 7.5 13.1546V66.1871V67.3227L8.33762 66.5559L18.3376 57.4013ZM6.93238 72.9588L6.93192 72.9593C6.65483 73.2135 6.29646 73.3912 5.90015 73.4637C5.50378 73.5363 5.09319 73.4993 4.72195 73.3588C4.3509 73.2184 4.04064 72.983 3.82571 72.6888C3.61125 72.3953 3.50008 72.0553 3.5 71.7118V13.1546C3.5 10.8742 4.48913 8.67726 6.26655 7.05011C8.04545 5.42161 10.4669 4.5 13 4.5H73C75.5331 4.5 77.9546 5.42161 79.7334 7.05011C81.5109 8.67726 82.5 10.8742 82.5 13.1546V49.7729C82.5 52.0533 81.5109 54.2502 79.7334 55.8774C77.9546 57.5059 75.5331 58.4275 73 58.4275H25.07H25.0699C23.6249 58.4277 22.2312 58.9531 21.1973 59.8999L6.93238 72.9588Z" fill="white" stroke="white"/>
</svg>
