 <svg width="79" height="62" viewBox="0 0 79 62" fill="none" xmlns="http://www.w3.org/2000/svg">
                      <ellipse cx="41.5" cy="30" rx="29.5" ry="27" fill="black"/>
                      <path d="M30.4209 24.0098H30.3404C30.168 24.0098 30.03 24.0501 30.03 24.1005V26.3509C30.03 26.4012 30.168 26.4416 30.3404 26.4416H30.4209V24.0098Z" fill="url(#paint0_linear_267_807)" stroke="white" stroke-width="2"/>
                      <path d="M30.4209 20.8125H30.3404C30.168 20.8125 30.03 20.8532 30.03 20.904V23.1753C30.03 23.2261 30.168 23.2668 30.3404 23.2668H30.4209V20.8125Z" fill="url(#paint1_linear_267_807)" stroke="white" stroke-width="2"/>
                      <path d="M30.3911 18.4258H30.3182C30.1427 18.4258 30.0003 18.4696 30.0003 18.5237V19.7014C30.0003 19.7554 30.1427 19.7993 30.3182 19.7993H30.3911V18.4258Z" fill="url(#paint2_linear_267_807)" stroke="white"/>
                      <path d="M52.6392 21.1279H52.7026C52.8678 21.1279 53 21.1683 53 21.2188V24.8874C53 24.9379 52.8678 24.9783 52.7026 24.9783H52.6392V21.1279Z" fill="url(#paint3_linear_267_807)" stroke="white" stroke-width="2"/>
                      <path d="M49.9214 47H33.1087C31.5108 47 30.2144 46.0159 30.2144 44.8012V15.1988C30.2144 13.9849 31.5097 13 33.1087 13H49.9214C51.5192 13 52.8157 13.9841 52.8157 15.1988V44.8012C52.8157 46.0151 51.5203 47 49.9214 47Z" fill="white"/>
                      <path d="M33.1082 46.6977C31.7094 46.6977 30.5703 45.834 30.5703 44.7715V15.1967C30.5703 14.135 31.7083 13.2705 33.1082 13.2705H49.9209C51.3197 13.2705 52.4587 14.1342 52.4587 15.1967V44.7715C52.4587 45.8331 51.3208 46.6977 49.9209 46.6977H33.1082Z" fill="url(#paint4_linear_267_807)"/>
                      <path d="M49.5758 13.584H46.51C46.2158 13.584 45.9556 13.7296 45.8651 13.9523L45.6162 14.6033C45.5257 14.8432 45.2316 15.0145 44.9035 15.0145H38.1157C37.7876 15.0145 37.4935 14.8518 37.403 14.6033L37.1541 13.9523C37.0749 13.7382 36.8147 13.584 36.5093 13.584H33.4548C32.1085 13.584 31.0225 14.4149 31.0225 15.4257V44.6016C31.0225 45.621 32.1085 46.4433 33.4548 46.4433H49.5758C50.922 46.4433 52.0081 45.621 52.0081 44.6016V15.4257C52.0081 14.4063 50.922 13.584 49.5758 13.584Z" fill="white"/>
                      <path d="M39.892 14.2347C39.7537 14.2347 39.6401 14.1505 39.6401 14.0461C39.6401 13.9425 39.7526 13.8574 39.892 13.8574H43.1248C43.2631 13.8574 43.3767 13.9416 43.3767 14.0461C43.3767 14.1496 43.2642 14.2347 43.1248 14.2347H39.892Z" fill="url(#paint5_linear_267_807)"/>
                      <path d="M43.1231 13.9277H39.8903C39.8037 13.9277 39.7329 13.9808 39.7329 14.0456C39.7329 14.1105 39.8037 14.1635 39.8903 14.1635H43.1231C43.2097 14.1635 43.2805 14.1105 43.2805 14.0456C43.2805 13.9808 43.2108 13.9277 43.1231 13.9277Z" fill="url(#paint6_linear_267_807)"/>
                      <path d="M38.1591 14.2347C38.0208 14.2347 37.9072 14.1505 37.9072 14.0461C37.9072 13.9425 38.0197 13.8574 38.1591 13.8574C38.2974 13.8574 38.4099 13.9416 38.4099 14.0461C38.4099 14.1496 38.2974 14.2347 38.1591 14.2347Z" fill="url(#paint7_linear_267_807)"/>
                      <path d="M38.3163 14.0456C38.3163 14.1105 38.2455 14.1635 38.1589 14.1635C38.0723 14.1635 38.0015 14.1105 38.0015 14.0456C38.0015 13.9808 38.0723 13.9277 38.1589 13.9277C38.2455 13.9277 38.3163 13.9808 38.3163 14.0456Z" fill="url(#paint8_radial_267_807)"/>
                      <path d="M39.0834 14.2347C38.9451 14.2347 38.8315 14.1505 38.8315 14.0461C38.8315 13.9425 38.944 13.8574 39.0834 13.8574C39.2217 13.8574 39.3342 13.9416 39.3342 14.0461C39.3353 14.1496 39.2217 14.2347 39.0834 14.2347Z" fill="url(#paint9_linear_267_807)"/>
                      <path d="M39.2411 14.0456C39.2411 14.1105 39.1703 14.1635 39.0837 14.1635C38.9971 14.1635 38.9263 14.1105 38.9263 14.0456C38.9263 13.9808 38.9971 13.9277 39.0837 13.9277C39.1714 13.9277 39.2411 13.9808 39.2411 14.0456Z" fill="url(#paint10_linear_267_807)"/>
                      <path d="M44.871 14.2347C44.7327 14.2347 44.6191 14.1505 44.6191 14.0461C44.6191 13.9425 44.7316 13.8574 44.871 13.8574C45.0093 13.8574 45.1218 13.9416 45.1218 14.0461C45.1229 14.1496 45.0093 14.2347 44.871 14.2347Z" fill="url(#paint11_linear_267_807)"/>
                      <path d="M45.0282 14.0456C45.0282 14.1105 44.9574 14.1635 44.8708 14.1635C44.7842 14.1635 44.7134 14.1105 44.7134 14.0456C44.7134 13.9808 44.7842 13.9277 44.8708 13.9277C44.9574 13.9277 45.0282 13.9808 45.0282 14.0456Z" fill="url(#paint12_linear_267_807)"/>
                      <path d="M43.9457 14.2347C43.8074 14.2347 43.6938 14.1505 43.6938 14.0461C43.6938 13.9425 43.8063 13.8574 43.9457 13.8574C44.084 13.8574 44.1965 13.9416 44.1965 14.0461C44.1976 14.1496 44.0852 14.2347 43.9457 14.2347Z" fill="url(#paint13_linear_267_807)"/>
                      <path d="M44.1029 14.0456C44.1029 14.1105 44.0321 14.1635 43.9455 14.1635C43.8589 14.1635 43.7881 14.1105 43.7881 14.0456C43.7881 13.9808 43.8589 13.9277 43.9455 13.9277C44.0321 13.9277 44.1029 13.9808 44.1029 14.0456Z" fill="url(#paint14_linear_267_807)"/>
                      <path d="M47.1033 14.5117H46.9604V14.6616H47.1033V14.5117Z" fill="white"/>
                      <path d="M47.3352 14.4453H47.1924V14.6617H47.3352V14.4453Z" fill="white"/>
                      <path d="M47.5666 14.3965H47.4238V14.6626H47.5666V14.3965Z" fill="white"/>
                      <path d="M47.799 14.2988H47.6562V14.6618H47.799V14.2988Z" fill="white"/>
                      <path opacity="0.55" d="M49.8087 14.3759V14.2529C49.8087 14.2529 49.0969 14.2529 48.9046 14.2529C48.8777 14.2529 48.8574 14.2689 48.8574 14.2891V14.626C48.8574 14.6462 48.8788 14.6622 48.9058 14.6622H49.8098V14.5392H49.9234V14.3767H49.8087V14.3759Z" fill="white"/>
                      <path opacity="0.55" d="M48.9463 14.5932V14.3203H49.7177V14.4433V14.4702V14.5932H48.9463Z" fill="white"/>
                      <path d="M48.9463 14.5932V14.3203H49.4343V14.4433V14.4702V14.5932H48.9463Z" fill="white"/>
                      <path d="M48.4014 14.6007C48.4014 14.5637 48.361 14.5342 48.3126 14.5342C48.2631 14.5342 48.2227 14.5645 48.2227 14.6007C48.2227 14.6378 48.2631 14.6672 48.3126 14.6672C48.361 14.6681 48.4014 14.6378 48.4014 14.6007Z" fill="white"/>
                      <path d="M48.1602 14.4876L48.2175 14.5306C48.2422 14.512 48.276 14.5011 48.3131 14.5011C48.3502 14.5011 48.3839 14.512 48.4087 14.5306L48.466 14.4876C48.4267 14.4581 48.3727 14.4405 48.3131 14.4405C48.2535 14.4396 48.1995 14.4581 48.1602 14.4876Z" fill="white"/>
                      <path d="M48.3121 14.3447C48.2176 14.3447 48.1322 14.3734 48.0703 14.4197L48.1277 14.4626C48.1749 14.4273 48.2401 14.4054 48.3132 14.4054C48.3852 14.4054 48.4515 14.4273 48.4987 14.4626L48.5561 14.4197C48.4931 14.3742 48.4076 14.3447 48.3121 14.3447Z" fill="white"/>
                      <path d="M47.9766 14.3505L48.0339 14.3935C48.1048 14.3404 48.2037 14.3067 48.3116 14.3067C48.4196 14.3067 48.5185 14.3396 48.5894 14.3935L48.6467 14.3505C48.5613 14.2865 48.4421 14.2461 48.3116 14.2461C48.1812 14.2469 48.0631 14.2865 47.9766 14.3505Z" fill="white"/>
                      <defs>
                      <linearGradient id="paint0_linear_267_807" x1="30.4502" y1="25.2146" x2="29.6818" y2="25.2146" gradientUnits="userSpaceOnUse">
                      <stop offset="0.421875" stop-color="white"/>
                      <stop offset="0.640625"/>
                      </linearGradient>
                      <linearGradient id="paint1_linear_267_807" x1="30.4502" y1="22.0285" x2="29.6818" y2="22.0285" gradientUnits="userSpaceOnUse">
                      <stop offset="0.421875" stop-color="white"/>
                      <stop offset="0.640625"/>
                      </linearGradient>
                      <linearGradient id="paint2_linear_267_807" x1="30.4204" y1="19.1063" x2="29.652" y2="19.1063" gradientUnits="userSpaceOnUse">
                      <stop offset="0.390625" stop-color="#6B7773"/>
                      <stop offset="0.557292"/>
                      </linearGradient>
                      <linearGradient id="paint3_linear_267_807" x1="53.027" y1="23.0356" x2="52.3177" y2="23.0356" gradientUnits="userSpaceOnUse">
                      <stop offset="0.0104167"/>
                      <stop offset="0.208333" stop-color="#6B7773"/>
                      <stop offset="1" stop-color="white"/>
                      </linearGradient>
                      <linearGradient id="paint4_linear_267_807" x1="41.5149" y1="10.0436" x2="41.5149" y2="46.1428" gradientUnits="userSpaceOnUse">
                      <stop offset="0.0414" stop-color="#07060A"/>
                      <stop offset="1" stop-color="#292936"/>
                      </linearGradient>
                      <linearGradient id="paint5_linear_267_807" x1="41.5079" y1="14.477" x2="41.5079" y2="13.7579" gradientUnits="userSpaceOnUse">
                      <stop stop-color="#474747"/>
                      <stop offset="0.9586" stop-color="#231D30"/>
                      </linearGradient>
                      <linearGradient id="paint6_linear_267_807" x1="39.7337" y1="14.0456" x2="43.281" y2="14.0456" gradientUnits="userSpaceOnUse">
                      <stop stop-color="#1F1A2B"/>
                      <stop offset="0.9375" stop-color="#1F1A2B"/>
                      </linearGradient>
                      <linearGradient id="paint7_linear_267_807" x1="38.1586" y1="14.477" x2="38.1586" y2="13.7579" gradientUnits="userSpaceOnUse">
                      <stop stop-color="#474747"/>
                      <stop offset="0.9586" stop-color="#231D30"/>
                      </linearGradient>
                      <radialGradient id="paint8_radial_267_807" cx="0" cy="0" r="1" gradientUnits="userSpaceOnUse" gradientTransform="translate(38.1584 14.0456) scale(0.157457 0.117922)">
                      <stop stop-color="#CDD0D1"/>
                      <stop offset="1" stop-color="#908F91"/>
                      </radialGradient>
                      <linearGradient id="paint9_linear_267_807" x1="39.0836" y1="14.477" x2="39.0836" y2="13.7579" gradientUnits="userSpaceOnUse">
                      <stop stop-color="#474747"/>
                      <stop offset="0.9586" stop-color="#231D30"/>
                      </linearGradient>
                      <linearGradient id="paint10_linear_267_807" x1="38.9264" y1="14.0456" x2="39.2414" y2="14.0456" gradientUnits="userSpaceOnUse">
                      <stop stop-color="#1F1A2B"/>
                      <stop offset="0.9375" stop-color="#1F1A2B"/>
                      </linearGradient>
                      <linearGradient id="paint11_linear_267_807" x1="44.8711" y1="14.477" x2="44.8711" y2="13.7579" gradientUnits="userSpaceOnUse">
                      <stop stop-color="#474747"/>
                      <stop offset="0.9586" stop-color="#231D30"/>
                      </linearGradient>
                      <linearGradient id="paint12_linear_267_807" x1="44.7134" y1="14.0456" x2="45.0284" y2="14.0456" gradientUnits="userSpaceOnUse">
                      <stop stop-color="#1F1A2B"/>
                      <stop offset="0.9375" stop-color="#1F1A2B"/>
                      </linearGradient>
                      <linearGradient id="paint13_linear_267_807" x1="43.9462" y1="14.477" x2="43.9462" y2="13.7579" gradientUnits="userSpaceOnUse">
                      <stop stop-color="#474747"/>
                      <stop offset="0.9586" stop-color="#231D30"/>
                      </linearGradient>
                      <linearGradient id="paint14_linear_267_807" x1="43.7885" y1="14.0456" x2="44.1034" y2="14.0456" gradientUnits="userSpaceOnUse">
                      <stop stop-color="#1F1A2B"/>
                      <stop offset="0.9375" stop-color="#1F1A2B"/>
                      </linearGradient>
                      </defs>
                      </svg>