<svg width="104" height="103" viewBox="0 0 104 103" fill="none" xmlns="http://www.w3.org/2000/svg">
<g clip-path="url(#clip0_286_1059)">
<path d="M89.5 3C92.8152 3 95.9946 4.31696 98.3388 6.66117C100.683 9.00537 102 12.1848 102 15.5V90.5C102 93.8152 100.683 96.9946 98.3388 99.3388C95.9946 101.683 92.8152 103 89.5 103H14.5C11.1848 103 8.00537 101.683 5.66117 99.3388C3.31696 96.9946 2 93.8152 2 90.5V15.5C2 12.1848 3.31696 9.00537 5.66117 6.66117C8.00537 4.31696 11.1848 3 14.5 3L89.5 3ZM14.5 9.25C12.8424 9.25 11.2527 9.90848 10.0806 11.0806C8.90848 12.2527 8.25 13.8424 8.25 15.5V21.75H95.75V15.5C95.75 13.8424 95.0915 12.2527 93.9194 11.0806C92.7473 9.90848 91.1576 9.25 89.5 9.25H14.5ZM8.25 28V90.5C8.25 92.1576 8.90848 93.7473 10.0806 94.9194C11.2527 96.0915 12.8424 96.75 14.5 96.75H27V28H8.25ZM33.25 28V96.75H89.5C91.1576 96.75 92.7473 96.0915 93.9194 94.9194C95.0915 93.7473 95.75 92.1576 95.75 90.5V28H33.25Z" fill="white"/>
<path d="M83.5 44.125C83.5 43.2962 83.1708 42.5013 82.5847 41.9153C81.9987 41.3292 81.2038 41 80.375 41H49.125C48.2962 41 47.5013 41.3292 46.9153 41.9153C46.3292 42.5013 46 43.2962 46 44.125C46 44.9538 46.3292 45.7487 46.9153 46.3347C47.5013 46.9208 48.2962 47.25 49.125 47.25H80.375C81.2038 47.25 81.9987 46.9208 82.5847 46.3347C83.1708 45.7487 83.5 44.9538 83.5 44.125ZM83.5 62.875C83.5 62.0462 83.1708 61.2513 82.5847 60.6653C81.9987 60.0792 81.2038 59.75 80.375 59.75H49.125C48.2962 59.75 47.5013 60.0792 46.9153 60.6653C46.3292 61.2513 46 62.0462 46 62.875C46 63.7038 46.3292 64.4987 46.9153 65.0847C47.5013 65.6708 48.2962 66 49.125 66H80.375C81.2038 66 81.9987 65.6708 82.5847 65.0847C83.1708 64.4987 83.5 63.7038 83.5 62.875ZM80.375 78.5C81.2038 78.5 81.9987 78.8292 82.5847 79.4153C83.1708 80.0013 83.5 80.7962 83.5 81.625C83.5 82.4538 83.1708 83.2487 82.5847 83.8347C81.9987 84.4208 81.2038 84.75 80.375 84.75H49.125C48.2962 84.75 47.5013 84.4208 46.9153 83.8347C46.3292 83.2487 46 82.4538 46 81.625C46 80.7962 46.3292 80.0013 46.9153 79.4153C47.5013 78.8292 48.2962 78.5 49.125 78.5H80.375Z" fill="white"/>
</g>
<defs>
<clipPath id="clip0_286_1059">
<rect width="104" height="103" fill="white"/>
</clipPath>
</defs>
</svg>
