<svg width="59" height="54" viewBox="0 0 59 54" fill="none" xmlns="http://www.w3.org/2000/svg">
<g clip-path="url(#clip0_285_1054)">
<ellipse cx="29.5" cy="27" rx="29.5" ry="27" fill="black"/>
<path d="M18.4209 21.0098H18.3404C18.168 21.0098 18.03 21.0501 18.03 21.1005V23.3509C18.03 23.4012 18.168 23.4416 18.3404 23.4416H18.4209V21.0098Z" fill="url(#paint0_linear_285_1054)" stroke="white" stroke-width="2"/>
<path d="M18.4209 17.8125H18.3404C18.168 17.8125 18.03 17.8532 18.03 17.904V20.1753C18.03 20.2261 18.168 20.2668 18.3404 20.2668H18.4209V17.8125Z" fill="url(#paint1_linear_285_1054)" stroke="white" stroke-width="2"/>
<path d="M18.3911 15.4258H18.3182C18.1427 15.4258 18.0003 15.4696 18.0003 15.5237V16.7014C18.0003 16.7554 18.1427 16.7993 18.3182 16.7993H18.3911V15.4258Z" fill="url(#paint2_linear_285_1054)" stroke="white"/>
<path d="M40.6392 18.1279H40.7026C40.8678 18.1279 41 18.1683 41 18.2188V21.8874C41 21.9379 40.8678 21.9783 40.7026 21.9783H40.6392V18.1279Z" fill="url(#paint3_linear_285_1054)" stroke="white" stroke-width="2"/>
<path d="M37.9214 44H21.1087C19.5108 44 18.2144 43.0159 18.2144 41.8012V12.1988C18.2144 10.9849 19.5097 10 21.1087 10H37.9214C39.5192 10 40.8157 10.9841 40.8157 12.1988V41.8012C40.8157 43.0151 39.5203 44 37.9214 44Z" fill="white"/>
<path d="M21.1082 43.6977C19.7094 43.6977 18.5703 42.834 18.5703 41.7715V12.1967C18.5703 11.135 19.7083 10.2705 21.1082 10.2705H37.9209C39.3197 10.2705 40.4587 11.1342 40.4587 12.1967V41.7715C40.4587 42.8331 39.3208 43.6977 37.9209 43.6977H21.1082Z" fill="url(#paint4_linear_285_1054)"/>
<path d="M37.5758 10.584H34.51C34.2158 10.584 33.9556 10.7296 33.8651 10.9523L33.6162 11.6033C33.5257 11.8432 33.2316 12.0145 32.9035 12.0145H26.1157C25.7876 12.0145 25.4935 11.8518 25.403 11.6033L25.1541 10.9523C25.0749 10.7382 24.8147 10.584 24.5093 10.584H21.4548C20.1085 10.584 19.0225 11.4149 19.0225 12.4257V41.6016C19.0225 42.621 20.1085 43.4433 21.4548 43.4433H37.5758C38.922 43.4433 40.0081 42.621 40.0081 41.6016V12.4257C40.0081 11.4063 38.922 10.584 37.5758 10.584Z" fill="white"/>
<path d="M27.892 11.2347C27.7537 11.2347 27.6401 11.1505 27.6401 11.0461C27.6401 10.9425 27.7526 10.8574 27.892 10.8574H31.1248C31.2631 10.8574 31.3767 10.9416 31.3767 11.0461C31.3767 11.1496 31.2642 11.2347 31.1248 11.2347H27.892Z" fill="url(#paint5_linear_285_1054)"/>
<path d="M31.1231 10.9277H27.8903C27.8037 10.9277 27.7329 10.9808 27.7329 11.0456C27.7329 11.1105 27.8037 11.1635 27.8903 11.1635H31.1231C31.2097 11.1635 31.2805 11.1105 31.2805 11.0456C31.2805 10.9808 31.2108 10.9277 31.1231 10.9277Z" fill="url(#paint6_linear_285_1054)"/>
<path d="M26.1591 11.2347C26.0208 11.2347 25.9072 11.1505 25.9072 11.0461C25.9072 10.9425 26.0197 10.8574 26.1591 10.8574C26.2974 10.8574 26.4099 10.9416 26.4099 11.0461C26.4099 11.1496 26.2974 11.2347 26.1591 11.2347Z" fill="url(#paint7_linear_285_1054)"/>
<path d="M26.3163 11.0456C26.3163 11.1105 26.2455 11.1635 26.1589 11.1635C26.0723 11.1635 26.0015 11.1105 26.0015 11.0456C26.0015 10.9808 26.0723 10.9277 26.1589 10.9277C26.2455 10.9277 26.3163 10.9808 26.3163 11.0456Z" fill="url(#paint8_radial_285_1054)"/>
<path d="M27.0834 11.2347C26.9451 11.2347 26.8315 11.1505 26.8315 11.0461C26.8315 10.9425 26.944 10.8574 27.0834 10.8574C27.2217 10.8574 27.3342 10.9416 27.3342 11.0461C27.3353 11.1496 27.2217 11.2347 27.0834 11.2347Z" fill="url(#paint9_linear_285_1054)"/>
<path d="M27.2411 11.0456C27.2411 11.1105 27.1703 11.1635 27.0837 11.1635C26.9971 11.1635 26.9263 11.1105 26.9263 11.0456C26.9263 10.9808 26.9971 10.9277 27.0837 10.9277C27.1714 10.9277 27.2411 10.9808 27.2411 11.0456Z" fill="url(#paint10_linear_285_1054)"/>
<path d="M32.871 11.2347C32.7327 11.2347 32.6191 11.1505 32.6191 11.0461C32.6191 10.9425 32.7316 10.8574 32.871 10.8574C33.0093 10.8574 33.1218 10.9416 33.1218 11.0461C33.1229 11.1496 33.0093 11.2347 32.871 11.2347Z" fill="url(#paint11_linear_285_1054)"/>
<path d="M33.0282 11.0456C33.0282 11.1105 32.9574 11.1635 32.8708 11.1635C32.7842 11.1635 32.7134 11.1105 32.7134 11.0456C32.7134 10.9808 32.7842 10.9277 32.8708 10.9277C32.9574 10.9277 33.0282 10.9808 33.0282 11.0456Z" fill="url(#paint12_linear_285_1054)"/>
<path d="M31.9457 11.2347C31.8074 11.2347 31.6938 11.1505 31.6938 11.0461C31.6938 10.9425 31.8063 10.8574 31.9457 10.8574C32.084 10.8574 32.1965 10.9416 32.1965 11.0461C32.1976 11.1496 32.0852 11.2347 31.9457 11.2347Z" fill="url(#paint13_linear_285_1054)"/>
<path d="M32.1029 11.0456C32.1029 11.1105 32.0321 11.1635 31.9455 11.1635C31.8589 11.1635 31.7881 11.1105 31.7881 11.0456C31.7881 10.9808 31.8589 10.9277 31.9455 10.9277C32.0321 10.9277 32.1029 10.9808 32.1029 11.0456Z" fill="url(#paint14_linear_285_1054)"/>
<path d="M35.1033 11.5117H34.9604V11.6616H35.1033V11.5117Z" fill="white"/>
<path d="M35.3352 11.4453H35.1924V11.6617H35.3352V11.4453Z" fill="white"/>
<path d="M35.5666 11.3965H35.4238V11.6626H35.5666V11.3965Z" fill="white"/>
<path d="M35.799 11.2988H35.6562V11.6618H35.799V11.2988Z" fill="white"/>
<path opacity="0.55" d="M37.8087 11.3759V11.2529C37.8087 11.2529 37.0969 11.2529 36.9046 11.2529C36.8777 11.2529 36.8574 11.2689 36.8574 11.2891V11.626C36.8574 11.6462 36.8788 11.6622 36.9058 11.6622H37.8098V11.5392H37.9234V11.3767H37.8087V11.3759Z" fill="white"/>
<path opacity="0.55" d="M36.9463 11.5932V11.3203H37.7177V11.4433V11.4702V11.5932H36.9463Z" fill="white"/>
<path d="M36.9463 11.5932V11.3203H37.4343V11.4433V11.4702V11.5932H36.9463Z" fill="white"/>
<path d="M36.4014 11.6007C36.4014 11.5637 36.361 11.5342 36.3126 11.5342C36.2631 11.5342 36.2227 11.5645 36.2227 11.6007C36.2227 11.6378 36.2631 11.6672 36.3126 11.6672C36.361 11.6681 36.4014 11.6378 36.4014 11.6007Z" fill="white"/>
<path d="M36.1602 11.4876L36.2175 11.5306C36.2422 11.512 36.276 11.5011 36.3131 11.5011C36.3502 11.5011 36.3839 11.512 36.4087 11.5306L36.466 11.4876C36.4267 11.4581 36.3727 11.4405 36.3131 11.4405C36.2535 11.4396 36.1995 11.4581 36.1602 11.4876Z" fill="white"/>
<path d="M36.3121 11.3447C36.2176 11.3447 36.1322 11.3734 36.0703 11.4197L36.1277 11.4626C36.1749 11.4273 36.2401 11.4054 36.3132 11.4054C36.3852 11.4054 36.4515 11.4273 36.4987 11.4626L36.5561 11.4197C36.4931 11.3742 36.4076 11.3447 36.3121 11.3447Z" fill="white"/>
<path d="M35.9766 11.3505L36.0339 11.3935C36.1048 11.3404 36.2037 11.3067 36.3116 11.3067C36.4196 11.3067 36.5185 11.3396 36.5894 11.3935L36.6467 11.3505C36.5613 11.2865 36.4421 11.2461 36.3116 11.2461C36.1812 11.2469 36.0631 11.2865 35.9766 11.3505Z" fill="white"/>
</g>
<defs>
<linearGradient id="paint0_linear_285_1054" x1="18.4502" y1="22.2146" x2="17.6818" y2="22.2146" gradientUnits="userSpaceOnUse">
<stop offset="0.421875" stop-color="white"/>
<stop offset="0.640625"/>
</linearGradient>
<linearGradient id="paint1_linear_285_1054" x1="18.4502" y1="19.0285" x2="17.6818" y2="19.0285" gradientUnits="userSpaceOnUse">
<stop offset="0.421875" stop-color="white"/>
<stop offset="0.640625"/>
</linearGradient>
<linearGradient id="paint2_linear_285_1054" x1="18.4204" y1="16.1063" x2="17.652" y2="16.1063" gradientUnits="userSpaceOnUse">
<stop offset="0.390625" stop-color="#6B7773"/>
<stop offset="0.557292"/>
</linearGradient>
<linearGradient id="paint3_linear_285_1054" x1="41.027" y1="20.0356" x2="40.3177" y2="20.0356" gradientUnits="userSpaceOnUse">
<stop offset="0.0104167"/>
<stop offset="0.208333" stop-color="#6B7773"/>
<stop offset="1" stop-color="white"/>
</linearGradient>
<linearGradient id="paint4_linear_285_1054" x1="29.5149" y1="7.04358" x2="29.5149" y2="43.1428" gradientUnits="userSpaceOnUse">
<stop offset="0.0414" stop-color="#07060A"/>
<stop offset="1" stop-color="#292936"/>
</linearGradient>
<linearGradient id="paint5_linear_285_1054" x1="29.5079" y1="11.477" x2="29.5079" y2="10.7579" gradientUnits="userSpaceOnUse">
<stop stop-color="#474747"/>
<stop offset="0.9586" stop-color="#231D30"/>
</linearGradient>
<linearGradient id="paint6_linear_285_1054" x1="27.7337" y1="11.0456" x2="31.281" y2="11.0456" gradientUnits="userSpaceOnUse">
<stop stop-color="#1F1A2B"/>
<stop offset="0.9375" stop-color="#1F1A2B"/>
</linearGradient>
<linearGradient id="paint7_linear_285_1054" x1="26.1586" y1="11.477" x2="26.1586" y2="10.7579" gradientUnits="userSpaceOnUse">
<stop stop-color="#474747"/>
<stop offset="0.9586" stop-color="#231D30"/>
</linearGradient>
<radialGradient id="paint8_radial_285_1054" cx="0" cy="0" r="1" gradientUnits="userSpaceOnUse" gradientTransform="translate(26.1584 11.0456) scale(0.157457 0.117922)">
<stop stop-color="#CDD0D1"/>
<stop offset="1" stop-color="#908F91"/>
</radialGradient>
<linearGradient id="paint9_linear_285_1054" x1="27.0836" y1="11.477" x2="27.0836" y2="10.7579" gradientUnits="userSpaceOnUse">
<stop stop-color="#474747"/>
<stop offset="0.9586" stop-color="#231D30"/>
</linearGradient>
<linearGradient id="paint10_linear_285_1054" x1="26.9264" y1="11.0456" x2="27.2414" y2="11.0456" gradientUnits="userSpaceOnUse">
<stop stop-color="#1F1A2B"/>
<stop offset="0.9375" stop-color="#1F1A2B"/>
</linearGradient>
<linearGradient id="paint11_linear_285_1054" x1="32.8711" y1="11.477" x2="32.8711" y2="10.7579" gradientUnits="userSpaceOnUse">
<stop stop-color="#474747"/>
<stop offset="0.9586" stop-color="#231D30"/>
</linearGradient>
<linearGradient id="paint12_linear_285_1054" x1="32.7134" y1="11.0456" x2="33.0284" y2="11.0456" gradientUnits="userSpaceOnUse">
<stop stop-color="#1F1A2B"/>
<stop offset="0.9375" stop-color="#1F1A2B"/>
</linearGradient>
<linearGradient id="paint13_linear_285_1054" x1="31.9462" y1="11.477" x2="31.9462" y2="10.7579" gradientUnits="userSpaceOnUse">
<stop stop-color="#474747"/>
<stop offset="0.9586" stop-color="#231D30"/>
</linearGradient>
<linearGradient id="paint14_linear_285_1054" x1="31.7885" y1="11.0456" x2="32.1034" y2="11.0456" gradientUnits="userSpaceOnUse">
<stop stop-color="#1F1A2B"/>
<stop offset="0.9375" stop-color="#1F1A2B"/>
</linearGradient>
<clipPath id="clip0_285_1054">
<rect width="59" height="54" fill="white"/>
</clipPath>
</defs>
</svg>
