<svg width="57" height="57" viewBox="0 0 57 57" fill="none" xmlns="http://www.w3.org/2000/svg">
<g clip-path="url(#clip0_284_1047)">
<path d="M57 28.5C57 44.2401 44.2401 57 28.5 57C12.7599 57 0 44.2401 0 28.5C0 12.7599 12.7599 0 28.5 0C44.2401 0 57 12.7599 57 28.5Z" fill="#545454"/>
<path d="M30.7773 34.3086H25.7969C25.8099 33.1367 25.901 32.1276 26.0703 31.2812C26.2526 30.4219 26.5586 29.6471 26.9883 28.957C27.431 28.2669 28.0169 27.5833 28.7461 26.9062C29.3581 26.3594 29.8919 25.8385 30.3477 25.3438C30.8034 24.849 31.1615 24.3411 31.4219 23.8203C31.6823 23.2865 31.8125 22.694 31.8125 22.043C31.8125 21.2878 31.6953 20.6628 31.4609 20.168C31.2396 19.6602 30.901 19.276 30.4453 19.0156C30.0026 18.7552 29.4427 18.625 28.7656 18.625C28.2057 18.625 27.6849 18.7487 27.2031 18.9961C26.7214 19.2305 26.3242 19.5951 26.0117 20.0898C25.7122 20.5846 25.556 21.2357 25.543 22.043H19.8789C19.918 20.2591 20.3281 18.7878 21.1094 17.6289C21.9036 16.457 22.9648 15.5911 24.293 15.0312C25.6211 14.4583 27.112 14.1719 28.7656 14.1719C30.5885 14.1719 32.151 14.4714 33.4531 15.0703C34.7552 15.6562 35.7513 16.5221 36.4414 17.668C37.1315 18.8008 37.4766 20.181 37.4766 21.8086C37.4766 22.9414 37.2552 23.9505 36.8125 24.8359C36.3698 25.7083 35.7904 26.5221 35.0742 27.2773C34.3581 28.0326 33.5703 28.8138 32.7109 29.6211C31.9688 30.2852 31.4609 30.9818 31.1875 31.7109C30.9271 32.4401 30.7904 33.306 30.7773 34.3086ZM25.2109 40.3438C25.2109 39.5104 25.4974 38.8203 26.0703 38.2734C26.6432 37.7135 27.4115 37.4336 28.375 37.4336C29.3255 37.4336 30.0872 37.7135 30.6602 38.2734C31.2461 38.8203 31.5391 39.5104 31.5391 40.3438C31.5391 41.151 31.2461 41.8346 30.6602 42.3945C30.0872 42.9544 29.3255 43.2344 28.375 43.2344C27.4115 43.2344 26.6432 42.9544 26.0703 42.3945C25.4974 41.8346 25.2109 41.151 25.2109 40.3438Z" fill="white"/>
</g>
<defs>
<clipPath id="clip0_284_1047">
<rect width="57" height="57" fill="white"/>
</clipPath>
</defs>
</svg>
