<svg width="53" height="47" viewBox="0 0 53 47" fill="none" xmlns="http://www.w3.org/2000/svg">
<g clip-path="url(#clip0_285_1049)">
<path d="M53 23.5C53 36.4787 41.1355 47 26.5 47C11.8645 47 0 36.4787 0 23.5C0 10.5213 11.8645 0 26.5 0C41.1355 0 53 10.5213 53 23.5Z" fill="black"/>
<g filter="url(#filter0_d_285_1049)">
<g clip-path="url(#clip1_285_1049)">
<path d="M37.2626 21.75C36.7495 21.75 36.2405 21.5295 35.8639 21.1425C34.8804 20.142 33.7479 19.2885 32.4996 18.6105C31.8885 18.2865 31.5174 17.496 31.5174 16.5V15.5565C29.8125 15.045 27.8634 15 25.9999 15C24.2412 15 22.2411 15.0465 20.4824 15.5595V16.5C20.4824 17.259 20.2189 18.21 19.4782 18.5985C18.2864 19.248 17.1553 20.1015 16.129 21.132C15.431 21.894 14.0682 21.9165 13.3109 21.1005L10.0335 17.5335C9.66521 17.157 9.44727 16.593 9.44727 15.9975C9.44727 15.408 9.65417 14.856 10.0335 14.4465C13.6916 10.6755 18.6133 9 25.9999 9C33.3865 9 38.3082 10.6755 41.9525 14.4315C42.3456 14.856 42.5525 15.408 42.5525 15.9975C42.5525 16.587 42.3456 17.139 41.9663 17.5485L38.6889 21.1125C38.3123 21.525 37.8047 21.75 37.2626 21.75ZM25.9999 13.5C28.1504 13.5 30.4181 13.5615 32.4251 14.2875C32.7065 14.391 32.8968 14.6775 32.8968 15V16.5C32.8968 16.9455 33.0237 17.2185 33.1079 17.2635C34.4845 18.012 35.7259 18.948 36.8088 20.049C37.0667 20.3145 37.486 20.301 37.7136 20.052L40.9911 16.488C41.1083 16.3605 41.1731 16.1865 41.1731 15.9975C41.1731 15.8085 41.1083 15.6345 40.9911 15.507C37.635 12.048 33.0072 10.5 25.9999 10.5C18.9926 10.5 14.3648 12.048 10.9949 15.522C10.8915 15.6345 10.8267 15.8085 10.8267 15.9975C10.8267 16.1805 10.8873 16.3485 10.9936 16.4595L14.2862 20.04C14.5206 20.292 14.9565 20.2905 15.1759 20.0535C16.3152 18.906 17.5525 17.97 18.8699 17.253C18.9719 17.199 19.103 16.911 19.103 16.5V15C19.103 14.6745 19.2961 14.3865 19.5802 14.286C21.6397 13.56 23.9736 13.5 25.9999 13.5Z" fill="white"/>
<path d="M26 27C22.1322 27 19.103 24.6945 19.103 21.75C19.103 18.8055 22.1322 16.5 26 16.5C29.8678 16.5 32.8969 18.8055 32.8969 21.75C32.8969 24.6945 29.8678 27 26 27ZM26 18C23.0094 18 20.4824 19.7175 20.4824 21.75C20.4824 23.7825 23.0094 25.5 26 25.5C28.9905 25.5 31.5175 23.7825 31.5175 21.75C31.5175 19.7175 28.9905 18 26 18Z" fill="white"/>
<path d="M39.1041 38.9997H12.8957C10.9936 38.9997 9.44727 37.3182 9.44727 35.2497V31.9917C9.44727 30.9027 9.87212 29.9772 10.8667 28.8942L14.7193 24.7062C15.2048 24.1782 15.849 23.9277 16.5166 23.9952C17.2325 24.0657 17.8836 24.4902 18.3071 25.1592C19.5692 27.1572 22.6604 28.4997 25.9999 28.4997C29.3394 28.4997 32.4306 27.1572 33.6927 25.1592C34.1148 24.4932 34.7659 24.0672 35.4818 23.9982C36.1687 23.9307 36.7991 24.1827 37.2847 24.7107L41.5428 29.3412C42.1939 30.0492 42.5525 30.9897 42.5525 31.9917V35.2497C42.5525 37.3182 41.0062 38.9997 39.1041 38.9997ZM16.307 25.4847C16.1304 25.4847 15.9028 25.5402 15.6959 25.7667L11.8419 29.9547C10.9494 30.9267 10.8267 31.5087 10.8267 31.9917V35.2497C10.8267 36.4902 11.755 37.4997 12.8957 37.4997H39.1041C40.2448 37.4997 41.1731 36.4902 41.1731 35.2497V31.9917C41.1731 31.3992 40.9524 30.8202 40.5676 30.4002L36.3094 25.7697C36.0653 25.5042 35.788 25.4697 35.6087 25.4892C35.3025 25.5207 35.0183 25.7082 34.8307 26.0082C33.2982 28.4337 29.8318 29.9997 25.9999 29.9997C22.168 29.9997 18.7016 28.4337 17.1704 26.0097C16.9801 25.7097 16.6959 25.5192 16.3911 25.4877C16.3649 25.4862 16.3359 25.4847 16.307 25.4847Z" fill="white"/>
</g>
<rect x="9.94727" y="6.5" width="32.1053" height="35" stroke="black" shape-rendering="crispEdges"/>
</g>
</g>
<defs>
<filter id="filter0_d_285_1049" x="5.44727" y="6" width="41.1055" height="44" filterUnits="userSpaceOnUse" color-interpolation-filters="sRGB">
<feFlood flood-opacity="0" result="BackgroundImageFix"/>
<feColorMatrix in="SourceAlpha" type="matrix" values="0 0 0 0 0 0 0 0 0 0 0 0 0 0 0 0 0 0 127 0" result="hardAlpha"/>
<feOffset dy="4"/>
<feGaussianBlur stdDeviation="2"/>
<feComposite in2="hardAlpha" operator="out"/>
<feColorMatrix type="matrix" values="0 0 0 0 0 0 0 0 0 0 0 0 0 0 0 0 0 0 0.25 0"/>
<feBlend mode="normal" in2="BackgroundImageFix" result="effect1_dropShadow_285_1049"/>
<feBlend mode="normal" in="SourceGraphic" in2="effect1_dropShadow_285_1049" result="shape"/>
</filter>
<clipPath id="clip0_285_1049">
<rect width="53" height="47" fill="white"/>
</clipPath>
<clipPath id="clip1_285_1049">
<rect x="9.44727" y="6" width="33.1053" height="36" fill="white"/>
</clipPath>
</defs>
</svg>
